<svg aria-hidden="true" style="position: absolute; width: 0; height: 0; overflow: hidden;" version="1.1" xmlns="http://www.w3.org/2000/svg" xmlns:xlink="http://www.w3.org/1999/xlink">
<defs>
<symbol id="icon-wind" viewBox="0 0 32 32">
<path d="M25.143 17.143h-24c-0.632 0-1.143 0.511-1.143 1.143s0.511 1.143 1.143 1.143h22.666c3.262 0 5.905 2.047 5.905 4.571s-1.953 4.571-6.857 4.571v2.286h2.286c3.786 0 6.857-3.071 6.857-6.857s-3.071-6.857-6.857-6.857v0zM16.002 21.714h-9.145c-0.632 0-1.143 0.512-1.143 1.143 0 0.632 0.511 1.143 1.143 1.143h9.143c1.262 0 2.286 1.024 2.286 2.286s-1.024 2.286-2.286 2.286v2.286c2.525 0 4.571-2.047 4.571-4.571 0-2.523-2.046-4.569-4.569-4.571v0zM10.286 10.286h13.714c0.632 0 1.143-0.511 1.143-1.143 0-0.631-0.511-1.143-1.143-1.143h-13.714c-0.632 0-1.143 0.512-1.143 1.143 0 0.632 0.511 1.143 1.143 1.143v0zM4.571 14.857h20.571c3.786 0 6.857-3.071 6.857-6.857s-3.071-6.857-6.857-6.857v2.286c3.225 0.607 4.571 2.047 4.571 4.571s-2.643 4.571-5.905 4.571h-19.238c-0.632 0-1.143 0.512-1.143 1.143 0 0.632 0.511 1.143 1.143 1.143v0z"></path>
</symbol>
<symbol id="icon-temperature" viewBox="0 0 32 32">
<path d="M21.25 6.008c0-6.904-10.5-6.904-10.5 0v13.048c-1.238 1.298-2.001 3.061-2.001 5.001 0 4.004 3.246 7.25 7.25 7.25s7.25-3.246 7.25-7.25c0-1.94-0.762-3.702-2.003-5.003l0.003 0.003zM16 28.75c-2.623 0-4.75-2.127-4.75-4.75 0-1.405 0.61-2.667 1.58-3.537l0.004-0.004c0.009-0.008 0.013-0.020 0.022-0.029 0.059-0.063 0.112-0.133 0.157-0.208l0.003-0.006c0.043-0.053 0.084-0.113 0.119-0.175l0.003-0.006c0.020-0.055 0.037-0.122 0.049-0.19l0.001-0.007c0.027-0.081 0.047-0.175 0.056-0.272v-0.005l0.007-0.033v-13.52c-0.001-0.031-0.002-0.068-0.002-0.105 0-1.52 1.232-2.752 2.752-2.752s2.752 1.232 2.752 2.752c0 0.037-0.001 0.074-0.002 0.11v-0.005 13.52c0 0.012 0.007 0.023 0.007 0.035 0.009 0.098 0.028 0.188 0.056 0.274l-0.002-0.009c0.013 0.079 0.031 0.149 0.055 0.217l-0.003-0.009c0.038 0.068 0.079 0.127 0.123 0.182l-0.002-0.002c0.048 0.081 0.101 0.151 0.16 0.215l-0.001-0.001c0.009 0.009 0.012 0.021 0.022 0.029 0.974 0.874 1.584 2.136 1.584 3.541 0 2.623-2.127 4.75-4.75 4.75v0zM17.25 21.001v-11.157c0-0.69-0.56-1.25-1.25-1.25s-1.25 0.56-1.25 1.25v0 11.157c-1.184 0.503-2 1.656-2 3 0 1.795 1.455 3.25 3.25 3.25s3.25-1.455 3.25-3.25c0-1.344-0.816-2.497-1.979-2.992l-0.021-0.008zM26.5 1.75c-2.071 0-3.75 1.679-3.75 3.75s1.679 3.75 3.75 3.75c2.071 0 3.75-1.679 3.75-3.75v0c-0.002-2.070-1.68-3.748-3.75-3.75v0zM26.5 6.75c-0.69 0-1.25-0.56-1.25-1.25s0.56-1.25 1.25-1.25c0.69 0 1.25 0.56 1.25 1.25v0c-0.001 0.69-0.56 1.249-1.25 1.25v0z"></path>
</symbol>
<symbol id="icon-search" viewBox="0 0 32 32">
<path d="M13.46 24.45c-6.29 0-11.389-5.010-11.389-11.2s5.099-11.21 11.389-11.21c6.29 0 11.39 5.020 11.39 11.21s-5.1 11.2-11.39 11.2v0zM31.688 30.25l-8.259-8.13c2.162-2.35 3.491-5.45 3.491-8.87 0-7.32-6.026-13.25-13.46-13.25s-13.46 5.93-13.46 13.25c0 7.31 6.026 13.24 13.46 13.24 3.212 0 6.158-1.11 8.472-2.96l8.292 8.16c0.405 0.4 1.060 0.4 1.464 0 0.405-0.39 0.405-1.040 0-1.44v0z"></path>
</symbol>
<symbol id="icon-celsius" viewBox="0 0 32 32">
<path d="M23.163 22.99c-0.368-0.135-0.778 0.053-0.913 0.421-1.603 4.354-5.172 7.167-9.094 7.167-5.49 0-9.956-5.423-9.956-12.089s4.466-12.089 9.956-12.089c3.899 0 7.46 2.79 9.073 7.108 0.137 0.368 0.547 0.554 0.915 0.418s0.555-0.547 0.417-0.915c-1.822-4.88-5.907-8.033-10.405-8.033-6.274 0-11.378 6.061-11.378 13.511s5.104 13.511 11.378 13.511c4.524 0 8.617-3.178 10.428-8.097 0.135-0.369-0.053-0.778-0.422-0.913z"></path>
<path d="M26.667 0c-1.96 0-3.556 1.595-3.556 3.556s1.595 3.556 3.556 3.556 3.556-1.595 3.556-3.556c0-1.96-1.595-3.556-3.556-3.556zM26.667 5.689c-1.176 0-2.133-0.957-2.133-2.133s0.957-2.133 2.133-2.133 2.133 0.957 2.133 2.133c0 1.176-0.957 2.133-2.133 2.133z"></path>
</symbol>
<symbol id="icon-farenheit" viewBox="0 0 32 32">
<path d="M25.634 0c-2.052 0-3.722 1.67-3.722 3.722s1.67 3.722 3.722 3.722 3.722-1.67 3.722-3.722c-0-2.052-1.67-3.722-3.722-3.722zM25.634 5.955c-1.232 0-2.233-1.002-2.233-2.233s1.002-2.233 2.233-2.233 2.233 1.002 2.233 2.233c-0 1.231-1.002 2.233-2.233 2.233z"></path>
<path d="M19.765 6.69v-1.489h-17.121v26.799h1.489v-12.655h12.655v-1.489h-12.655v-11.166z"></path>
</symbol>
<symbol id="icon-humidity" viewBox="0 0 32 32">
<path d="M20.009 4.341c2.456-0.532 5.502-0.505 9.648 0.529 0.714 0.178 1.149 0.9 0.97 1.613s-0.902 1.146-1.617 0.968c-3.854-0.961-6.474-0.934-8.435-0.51-1.967 0.426-3.381 1.27-4.879 2.184l-0.112 0.068c-1.444 0.881-3.043 1.856-5.156 2.208-2.191 0.364-4.78 0.042-8.256-1.345-0.684-0.273-1.016-1.047-0.743-1.729s1.049-1.014 1.733-0.741c3.19 1.273 5.268 1.45 6.827 1.191 1.582-0.263 2.789-0.991 4.315-1.922 1.502-0.916 3.254-1.983 5.704-2.513z"></path>
<path d="M29.656 10.191c-4.146-1.034-7.192-1.060-9.648-0.529-2.45 0.53-4.202 1.598-5.704 2.513-1.527 0.931-2.733 1.659-4.315 1.922-1.559 0.259-3.637 0.082-6.827-1.191-0.684-0.273-1.46 0.059-1.733 0.741s0.059 1.456 0.743 1.729c3.476 1.387 6.065 1.709 8.256 1.345 2.113-0.351 3.712-1.327 5.156-2.208l0.112-0.068c1.498-0.913 2.912-1.758 4.879-2.184 1.961-0.425 4.581-0.451 8.435 0.51 0.714 0.178 1.438-0.255 1.617-0.968s-0.256-1.435-0.97-1.613z"></path>
<path d="M25.333 13.369c0.463 0 0.849 0.239 1.118 0.601 0.094 0.128 0.313 0.427 0.603 0.845 0.386 0.556 0.903 1.33 1.422 2.193 0.517 0.859 1.049 1.83 1.457 2.779 0.391 0.909 0.733 1.894 0.733 2.895-0 0.281-0.034 0.564-0.081 0.841-0.077 0.461-0.234 1.096-0.56 1.748-0.329 0.657-0.844 1.354-1.641 1.883-0.805 0.535-1.819 0.847-3.052 0.847s-2.247-0.311-3.052-0.847c-0.797-0.53-1.311-1.227-1.64-1.884-0.326-0.651-0.483-1.287-0.56-1.748-0.046-0.276-0.080-0.559-0.081-0.839-0.001-1 0.342-1.987 0.733-2.896 0.408-0.949 0.941-1.92 1.457-2.779 0.519-0.863 1.036-1.636 1.422-2.193 0.29-0.418 0.509-0.717 0.603-0.845 0.269-0.362 0.655-0.601 1.118-0.601zM27.483 20.834c-0.342-0.797-0.809-1.655-1.293-2.458-0.294-0.489-0.589-0.949-0.857-1.353-0.268 0.404-0.563 0.864-0.857 1.353-0.483 0.804-0.95 1.661-1.293 2.458l-0.019 0.045c-0.236 0.548-0.514 1.196-0.497 1.801 0.016 0.479 0.145 0.973 0.359 1.4 0.171 0.341 0.406 0.642 0.734 0.86 0.32 0.213 0.806 0.4 1.573 0.4s1.253-0.187 1.573-0.4c0.328-0.218 0.564-0.519 0.735-0.86 0.214-0.427 0.343-0.921 0.359-1.4 0.017-0.605-0.262-1.253-0.497-1.8l-0.019-0.045z"></path>
<path d="M18.839 15.374c1.014-0.328 1.791 0.727 1.314 1.678-0.218 0.435-0.463 0.804-0.95 0.976-1.303 0.46-2.382 1.108-3.509 1.795l-0.112 0.068c-1.444 0.881-3.043 1.856-5.156 2.208-2.191 0.364-4.78 0.042-8.256-1.345-0.684-0.273-1.016-1.047-0.743-1.729s1.049-1.014 1.733-0.741c3.19 1.273 5.268 1.45 6.827 1.191 1.582-0.263 2.789-0.991 4.315-1.922 1.451-0.884 2.944-1.664 4.535-2.179z"></path>
</symbol>
<symbol id="icon-pressure" viewBox="0 0 32 32">
<path d="M16 12c-0.736 0-1.333 0.597-1.333 1.333v7.023c-0.797 0.461-1.333 1.323-1.333 2.31 0 1.473 1.194 2.667 2.667 2.667s2.667-1.194 2.667-2.667c0-0.987-0.536-1.849-1.333-2.31v-7.023c0-0.736-0.597-1.333-1.333-1.333z"></path>
<path d="M14.667 8c0-0.736 0.597-1.333 1.333-1.333s1.333 0.597 1.333 1.333c0 0.736-0.597 1.333-1.333 1.333s-1.333-0.597-1.333-1.333z"></path>
<path d="M21.333 9.333c-0.736 0-1.333 0.597-1.333 1.333s0.597 1.333 1.333 1.333c0.736 0 1.333-0.597 1.333-1.333s-0.597-1.333-1.333-1.333z"></path>
<path d="M8 17.333c-0.736 0-1.333-0.597-1.333-1.333s0.597-1.333 1.333-1.333c0.736 0 1.333 0.597 1.333 1.333s-0.597 1.333-1.333 1.333z"></path>
<path d="M9.333 10.667c0 0.736 0.597 1.333 1.333 1.333s1.333-0.597 1.333-1.333c0-0.736-0.597-1.333-1.333-1.333s-1.333 0.597-1.333 1.333z"></path>
<path d="M24 17.333c-0.736 0-1.333-0.597-1.333-1.333s0.597-1.333 1.333-1.333c0.736 0 1.333 0.597 1.333 1.333s-0.597 1.333-1.333 1.333z"></path>
<path d="M16 30.667c8.1 0 14.667-6.567 14.667-14.667s-6.567-14.667-14.667-14.667c-8.1 0-14.667 6.566-14.667 14.667s6.566 14.667 14.667 14.667zM16 27.991c-6.622 0-11.991-5.369-11.991-11.991s5.368-11.991 11.991-11.991c6.622 0 11.991 5.368 11.991 11.991s-5.369 11.991-11.991 11.991z"></path>
</symbol>
</defs>
</svg>
